<svg version="1.1" id="Layer_1" xmlns="http://www.w3.org/2000/svg" xmlns:xlink="http://www.w3.org/1999/xlink" x="0px" y="0px"
	 width="100%" viewBox="0 0 944 988" enable-background="new 0 0 944 988" xml:space="preserve">
<path fill="#152A3F" opacity="1.000000" stroke="none" 
	d="
M649.000000,989.000000 
	C432.666656,989.000000 216.833328,989.000000 1.000000,989.000000 
	C1.000000,659.666687 1.000000,330.333344 1.000000,1.000000 
	C315.666656,1.000000 630.333313,1.000000 945.000000,1.000000 
	C945.000000,330.333344 945.000000,659.666687 945.000000,989.000000 
	C846.500000,989.000000 748.000000,989.000000 649.000000,989.000000 
M658.369263,371.942932 
	C665.086853,341.255615 658.132446,314.038422 636.727478,291.066406 
	C618.150330,271.129211 594.640747,262.408630 567.540833,263.600311 
	C562.515808,263.821289 560.489868,262.210236 558.741882,257.493042 
	C544.909668,220.164886 519.291382,193.453934 482.533020,178.885010 
	C443.168671,163.283203 403.777557,165.879898 367.091522,187.227997 
	C323.785645,212.428284 301.346375,251.228928 299.330994,301.264679 
	C298.065582,332.680115 307.795105,361.012024 326.679626,386.076385 
	C337.709656,400.715912 351.098083,412.865112 367.188568,421.838593 
	C373.333649,425.265625 380.247681,422.834503 381.754944,416.662567 
	C382.913025,411.920441 380.861023,408.602997 376.884216,405.680420 
	C368.065918,399.199829 358.652283,393.147644 351.155151,385.318115 
	C321.469360,354.316162 311.102844,317.047058 321.781433,275.714722 
	C332.537231,234.083435 359.488403,206.066116 400.983612,193.065079 
	C443.211182,179.834579 492.658203,194.817215 520.780151,229.019348 
	C531.603088,242.182297 539.723694,256.710114 544.160583,273.258636 
	C546.132568,280.613586 548.716736,282.394073 556.318237,282.495575 
	C561.650024,282.566772 566.984558,282.438904 572.315918,282.525482 
	C603.858032,283.037689 628.159241,300.353516 638.452454,329.604980 
	C647.262390,354.641022 639.677612,383.843689 620.094788,401.911530 
	C610.769531,410.515350 600.048645,415.952087 587.817078,418.949707 
	C581.648438,420.461456 578.796082,425.464478 580.192505,430.915314 
	C581.491638,435.986450 586.351868,438.616272 592.490479,437.068665 
	C626.862732,428.403137 648.621643,406.794128 658.369263,371.942932 
M467.174927,395.745911 
	C478.417114,378.820770 489.659302,361.895630 500.901428,344.970428 
	C501.546326,343.999542 502.230743,343.052307 502.829132,342.053497 
	C506.168762,336.479218 505.288269,330.941772 500.614685,327.986328 
	C495.872650,324.987610 490.546478,326.348541 486.931458,331.804657 
	C466.789124,362.205109 446.734650,392.663727 426.583557,423.058350 
	C424.227570,426.611969 422.784424,430.104248 424.948730,434.208191 
	C427.220703,438.516357 431.114685,439.221619 435.537506,439.206116 
	C456.869965,439.131226 478.202881,439.172485 499.535614,439.172546 
	C502.471832,439.172577 505.408020,439.172577 509.017944,439.172577 
	C507.794678,441.178955 507.005493,442.574066 506.122437,443.907013 
	C489.934906,468.342102 473.701111,492.746704 457.565735,517.216187 
	C453.784882,522.949951 454.548401,528.627563 459.153290,531.860168 
	C463.543701,534.942200 469.497437,533.328674 473.185883,527.776184 
	C493.368103,497.394867 513.528625,466.998962 533.603027,436.546356 
	C539.096008,428.213654 535.314514,420.809814 525.188416,420.569489 
	C510.557007,420.222198 495.911530,420.466431 481.272034,420.461609 
	C471.518311,420.458405 461.764587,420.460999 450.807861,420.460999 
	C456.568451,411.771698 461.678528,404.063599 467.174927,395.745911 
M709.878601,586.286865 
	C700.135925,593.203918 699.440247,603.328308 699.851990,613.980042 
	C700.384583,627.755920 709.676880,637.086060 723.408020,637.160889 
	C736.402100,637.231689 749.396790,637.176392 762.391235,637.176636 
	C764.159302,637.176636 765.927368,637.176636 767.630310,637.176636 
	C768.945251,652.762634 764.052124,658.145935 749.248291,658.151733 
	C736.935303,658.156555 724.622314,658.152710 712.065796,658.152710 
	C712.065796,663.888245 712.065796,669.304016 712.065796,674.903564 
	C726.811829,674.903564 741.315430,675.422363 755.765686,674.766602 
	C772.229797,674.019409 783.484558,662.884399 784.457581,646.514404 
	C785.157898,634.732300 785.138245,622.844116 784.464966,611.058960 
	C783.535095,594.781799 772.713257,583.928162 756.326721,582.928650 
	C744.383667,582.200134 732.354858,582.543091 720.379089,582.901062 
	C717.063599,583.000183 713.800842,584.860413 709.878601,586.286865 
M595.012756,664.229919 
	C595.224792,672.292053 597.901306,674.982056 605.884521,674.998962 
	C619.697876,675.028198 633.512390,675.109863 647.324585,674.982422 
	C667.892944,674.792603 682.750854,663.933105 686.375854,644.880920 
	C688.087280,635.886414 687.560242,626.322083 687.028320,617.074585 
	C685.939819,598.150269 671.776245,583.876282 653.056396,583.041687 
	C637.277283,582.338135 621.453796,582.548340 605.649658,582.520508 
	C597.518188,582.506226 595.022766,585.199463 595.017456,593.390076 
	C595.002380,616.689819 595.012085,639.989624 595.012756,664.229919 
M468.239777,620.028076 
	C468.271210,597.480530 453.081177,584.083862 437.490967,582.117126 
	C426.012085,580.668884 414.175018,580.790344 402.603424,581.645142 
	C385.420380,582.914490 372.652710,593.907837 369.534729,610.649048 
	C367.761566,620.169678 368.358978,630.207947 368.541077,640.000977 
	C368.927307,660.769775 386.261078,677.571045 409.095062,676.120789 
	C416.397858,675.656921 423.755768,675.958496 431.086517,676.057068 
	C450.500092,676.318115 467.166351,660.975769 467.994598,640.936340 
	C468.269684,634.281189 468.181885,627.611145 468.239777,620.028076 
M558.917297,592.544373 
	C558.917297,614.297913 558.917297,636.051453 558.917297,658.150818 
	C549.316162,658.150818 540.346191,658.168945 531.376343,658.147217 
	C510.875061,658.097656 500.009491,647.227661 499.935028,626.641846 
	C499.888000,613.652222 499.934296,600.662292 499.913055,587.672485 
	C499.910461,586.077637 499.748932,584.483032 499.653259,582.746826 
	C493.987762,582.746826 488.724243,582.746826 483.806610,582.746826 
	C483.806610,601.265564 482.552765,619.621033 484.143921,637.726562 
	C485.886353,657.552979 501.623688,672.120056 521.547485,673.926392 
	C535.595032,675.199951 549.801331,674.787964 563.938721,674.981445 
	C573.149231,675.107544 575.755798,672.387146 575.760559,663.078735 
	C575.773315,637.931824 575.767761,612.784851 575.748901,587.637939 
	C575.747681,586.050781 575.570007,584.463745 575.469666,582.795715 
	C569.732300,582.795715 564.483765,582.795715 558.917603,582.795715 
	C558.917603,585.929626 558.917603,588.746948 558.917297,592.544373 
M259.207245,584.311768 
	C258.084259,583.700928 256.963806,582.563110 255.837967,582.557800 
	C236.681168,582.467163 217.517960,582.237122 198.368271,582.628723 
	C184.327545,582.915710 175.445374,592.168518 175.255035,606.127441 
	C175.048370,621.283997 175.005585,636.449768 175.286652,651.604126 
	C175.553848,666.010315 185.084595,674.982727 199.554337,675.002747 
	C217.879105,675.028076 236.203964,675.013367 254.528778,675.000244 
	C255.982666,674.999207 257.436462,674.876282 258.842865,674.812195 
	C258.842865,669.137756 258.842865,663.754333 258.842865,658.123047 
	C239.464996,658.123047 220.486572,658.102844 201.508209,658.132874 
	C193.758621,658.145142 192.013535,656.540283 191.998627,648.927429 
	C191.972549,635.600342 191.979874,622.273132 191.995697,608.945984 
	C192.005203,600.933167 193.665970,599.208801 201.605408,599.191528 
	C218.930603,599.153870 236.255936,599.179626 253.581223,599.179504 
	C255.358276,599.179504 257.135345,599.179565 259.236664,599.179565 
	C259.236664,594.129089 259.236664,589.658081 259.207245,584.311768 
M275.104828,586.811707 
	C275.104401,612.302124 275.096893,637.792480 275.107269,663.282898 
	C275.110962,672.302185 277.756287,674.997986 286.607941,675.002625 
	C309.432678,675.014526 332.257385,675.006592 355.082123,675.006592 
	C356.681854,675.006592 358.281586,675.006653 359.840546,675.006653 
	C359.840546,669.101562 359.840546,663.851929 359.840546,658.085876 
	C337.150238,658.085876 314.762573,658.085876 291.894165,658.085876 
	C291.894165,632.677551 291.894165,607.787598 291.894165,582.490479 
	C286.939453,582.490479 282.448395,582.280212 278.004608,582.645386 
	C276.956543,582.731567 276.067810,584.756042 275.104828,586.811707 
M461.418152,740.635437 
	C461.267639,735.842590 459.575623,731.891052 455.218445,729.440796 
	C449.854065,726.424133 444.785431,727.703796 439.424927,731.297607 
	C439.424927,726.471985 439.424927,722.369629 439.424927,718.267334 
	C438.982361,717.968323 438.539795,717.669312 438.097229,717.370300 
	C437.192596,718.328857 435.517487,719.274536 435.501251,720.247925 
	C435.315857,731.350952 435.383362,742.458069 435.383362,754.929688 
	C437.762360,753.592590 439.277008,752.741333 440.914093,751.821228 
	C450.361816,758.340088 460.051239,753.614563 461.418152,740.635437 
M122.178253,731.277832 
	C116.412285,726.363220 110.488297,726.839844 103.983452,731.481934 
	C103.983452,726.584717 103.983452,722.383606 103.983452,718.118042 
	C102.412903,718.118042 101.323997,718.118042 100.128838,718.118042 
	C100.128838,730.114075 100.128838,741.872559 100.128838,755.005005 
	C102.221794,753.626953 103.580879,752.732117 104.947739,751.832092 
	C106.448586,752.472717 108.312119,753.627502 110.330513,754.060547 
	C115.809692,755.236145 120.564346,753.975525 123.838722,749.034973 
	C127.108795,744.100769 126.660179,737.507019 122.178253,731.277832 
M346.053864,752.707642 
	C347.530487,751.068604 349.007141,749.429565 350.483765,747.790527 
	C350.212494,747.422180 349.941193,747.053772 349.669891,746.685364 
	C345.959259,748.101807 342.331177,750.352173 338.517639,750.729797 
	C333.418243,751.234741 330.756287,748.094055 330.456543,742.681030 
	C337.380829,742.681030 344.286133,742.681030 351.154510,742.681030 
	C351.521576,732.956726 346.816467,727.719666 338.246155,727.838989 
	C329.891510,727.955322 324.897858,733.922852 325.692352,742.841125 
	C326.550995,752.478943 335.237946,756.984924 346.053864,752.707642 
M754.789673,735.619751 
	C754.789673,733.173462 754.789673,730.727173 754.789673,726.715942 
	C752.243958,728.496216 750.819702,729.492188 749.330078,730.533875 
	C742.751221,726.608765 736.389099,726.973267 731.952515,731.703186 
	C727.906250,736.016968 727.567566,744.916931 731.265503,749.757080 
	C735.528015,755.336487 741.405518,755.910706 749.149902,752.206848 
	C751.394348,753.128845 752.793091,753.703430 754.789612,754.523560 
	C754.789612,747.829773 754.789612,742.208679 754.789673,735.619751 
M857.837036,746.880615 
	C856.161072,747.662292 854.554810,748.809692 852.793884,749.144897 
	C849.705505,749.732788 846.271240,750.676880 843.458923,749.849731 
	C841.230103,749.194214 839.715149,746.111755 837.883179,744.106934 
	C838.214600,743.675049 838.545959,743.243225 838.877380,742.811340 
	C845.808167,742.811340 852.738953,742.811340 859.624878,742.811340 
	C860.238159,735.021057 857.039124,729.917419 850.784485,728.213440 
	C844.717529,726.560669 837.909180,729.335632 835.340088,734.508301 
	C832.374817,740.478699 834.064087,748.246765 839.171692,752.127441 
	C845.763611,757.135681 855.582520,754.565979 857.837036,746.880615 
M247.158066,731.594360 
	C248.078339,730.556946 248.998611,729.519531 250.462463,727.869385 
	C241.225494,727.709473 239.312836,736.812195 232.730225,739.713623 
	C232.730225,733.165405 232.786591,727.024170 232.705872,720.884705 
	C232.666962,717.925232 232.550049,717.926758 228.960556,718.584106 
	C228.960556,730.336609 228.960556,742.082336 228.960556,753.828003 
	C229.418808,754.082947 229.877075,754.337891 230.335327,754.592773 
	C231.133789,753.415894 232.694229,752.171082 232.596420,751.074036 
	C232.210159,746.742004 233.838196,743.711365 237.351456,741.625122 
	C242.474167,744.840820 242.408310,753.824951 251.530457,754.304260 
	C247.367035,748.419861 243.872269,743.480469 240.014771,738.028381 
	C242.439453,735.866089 244.543335,733.989868 247.158066,731.594360 
M173.644730,754.205811 
	C179.358414,752.890137 182.519913,749.218933 183.149399,743.487244 
	C183.762756,737.902405 182.880554,732.775452 177.410492,729.697937 
	C172.297058,726.821045 167.196182,727.040039 162.377228,730.343384 
	C157.899017,733.413147 156.144379,740.729065 158.258713,746.631287 
	C160.263809,752.228577 165.052292,754.748779 173.644730,754.205811 
M311.297821,750.807861 
	C311.007202,753.720825 312.079407,754.861328 315.321350,753.566040 
	C315.321350,749.342285 315.076019,745.026794 315.368408,740.748108 
	C316.172424,728.983337 305.726959,724.181824 297.480316,730.280701 
	C296.099548,729.471436 294.894623,728.645508 293.570099,728.122375 
	C293.378845,728.046753 292.187347,729.420776 292.178009,730.133362 
	C292.074432,738.043335 292.112762,745.955078 292.112762,753.866394 
	C292.686584,754.108826 293.260406,754.351318 293.834229,754.593750 
	C294.601501,753.406372 295.932892,752.264771 296.033722,751.023193 
	C296.382324,746.730896 295.980713,742.366516 296.474670,738.100220 
	C296.982208,733.716370 300.025452,731.232544 304.388824,731.427124 
	C308.857269,731.626404 311.214630,734.410828 311.238525,738.981384 
	C311.257629,742.636475 311.277679,746.291565 311.297821,750.807861 
M415.545959,754.157471 
	C423.499664,751.463196 426.920441,744.508240 424.317352,736.323792 
	C422.260468,729.856628 415.151398,726.290833 408.181793,728.230347 
	C401.140198,730.189819 397.413879,737.678101 399.618652,745.438354 
	C401.544006,752.215027 406.126221,754.887451 415.545959,754.157471 
M496.138519,740.636230 
	C496.596954,730.535828 486.194000,725.398804 477.915314,728.836304 
	C471.618774,731.450867 468.922424,737.681824 470.747192,745.049377 
	C472.367950,751.593262 477.350616,754.970276 484.587433,754.429871 
	C491.718964,753.897217 495.551086,749.584961 496.138519,740.636230 
M205.425171,727.833069 
	C196.767349,728.426636 192.067612,733.240173 192.151688,741.427917 
	C192.228302,748.889587 197.152618,754.137817 204.395218,754.476868 
	C212.042328,754.834900 217.462677,750.319824 218.075363,743.081665 
	C218.832108,734.141663 214.906754,729.119507 205.425171,727.833069 
M584.263550,750.800903 
	C581.996460,748.984253 579.729431,747.167603 577.462341,745.350952 
	C578.331970,752.967957 582.626099,755.304382 590.852295,754.225281 
	C594.624512,753.730347 597.533325,752.236816 598.142822,748.036194 
	C598.813232,743.416199 595.923218,741.355225 592.197876,740.126038 
	C589.367859,739.192261 586.336182,738.827332 583.576050,737.745361 
	C582.475586,737.313965 581.161499,735.591492 581.226624,734.535828 
	C581.292542,733.467102 583.035034,731.565369 583.882874,731.649231 
	C586.940674,731.951355 589.945007,732.884033 592.940063,733.688538 
	C594.246826,734.039612 595.482117,734.656982 597.355286,735.390503 
	C594.641785,727.554504 583.279663,725.246155 578.610840,730.630676 
	C575.831360,733.836243 576.463074,738.448364 580.214355,740.398132 
	C582.236938,741.449341 584.622620,741.777771 586.787354,742.585510 
	C589.658813,743.656921 594.590881,743.083069 593.858887,747.726868 
	C593.199890,751.906555 588.823853,751.061157 585.555176,751.049255 
	C585.389893,751.048645 585.224792,751.014099 584.263550,750.800903 
M551.583740,732.562073 
	C555.922668,730.690735 559.823303,730.548462 563.191895,734.695801 
	C564.033936,735.732544 565.979675,735.872864 568.271973,736.752991 
	C564.714050,729.216431 559.483948,726.631287 552.693176,728.089905 
	C546.685120,729.380493 542.927429,734.504883 542.959290,741.364014 
	C542.989807,747.932068 546.876465,753.134521 552.530396,754.175110 
	C559.911804,755.533691 564.827148,752.995605 568.357239,744.804871 
	C565.699341,746.303650 564.199402,747.173584 562.676819,748.001892 
	C560.844788,748.998535 559.089600,750.449768 557.130432,750.833984 
	C553.083801,751.627563 550.068420,749.712708 548.162170,746.086853 
	C545.916443,741.815186 546.828186,737.497375 551.583740,732.562073 
M641.060608,753.164612 
	C642.245972,753.485596 643.431335,753.806519 645.051392,754.245178 
	C645.051392,748.540527 644.855774,743.713562 645.108032,738.910095 
	C645.345825,734.382385 648.701538,731.322754 652.836548,731.313904 
	C657.146301,731.304626 659.897949,734.173401 660.059753,739.099243 
	C660.190857,743.092102 659.916748,747.106812 660.227417,751.080139 
	C660.321716,752.286682 661.764038,753.387878 662.588867,754.537292 
	C663.046875,754.272644 663.504822,754.007996 663.962769,753.743347 
	C663.962769,748.116577 664.338623,742.458191 663.867798,736.871094 
	C663.278381,729.876526 656.355042,725.834473 649.898315,728.348755 
	C648.292847,728.973877 646.881165,730.096680 646.587341,730.271729 
	C644.425293,729.052063 643.101501,728.305298 640.991028,727.114746 
	C640.991028,736.268738 640.991028,744.240356 641.060608,753.164612 
M802.668518,729.927734 
	C805.314514,736.722107 808.158813,743.448486 810.521118,750.340088 
	C811.671143,753.695129 813.324524,754.960632 817.019287,753.743042 
	C820.236694,745.451477 823.539185,736.940552 827.008789,727.999023 
	C819.745850,727.759094 821.243225,733.857544 819.423828,737.034424 
	C817.351135,740.653625 816.305969,744.861206 814.479187,749.700500 
	C811.824524,742.757751 809.573975,736.721130 807.203613,730.731873 
	C805.865479,727.350830 805.562744,727.320374 802.668518,729.927734 
M689.369751,729.367493 
	C691.037720,730.547058 692.705688,731.726562 694.954895,733.317200 
	C694.954895,739.656372 694.954895,746.754883 694.954895,754.052246 
	C696.273438,753.983154 698.084534,753.986816 698.091858,753.873779 
	C698.565674,746.553223 698.893250,739.223145 699.188538,732.868347 
	C701.641479,731.523804 703.396240,730.561890 705.151001,729.600037 
	C704.903748,729.111755 704.656433,728.623535 704.409119,728.135254 
	C702.654358,728.007812 700.899536,727.880371 699.211731,727.757812 
	C698.360779,719.055054 698.360779,719.055054 694.716370,719.415588 
	C694.716370,722.123962 694.716370,724.874207 694.716370,727.525208 
	C692.733704,727.911133 691.136475,728.222046 689.369751,729.367493 
M773.589844,726.427307 
	C773.572571,724.766907 773.912842,722.990356 773.423279,721.483337 
	C773.040771,720.306091 771.628174,719.463379 770.673279,718.471985 
	C770.212830,718.816589 769.752441,719.161255 769.291992,719.505920 
	C769.291992,722.241089 769.291992,724.976318 769.291992,727.599060 
	C767.254517,727.927979 765.706909,728.177795 764.159363,728.427612 
	C763.988037,728.962097 763.816772,729.496582 763.645508,730.031006 
	C765.486633,730.855835 767.327759,731.680603 769.577393,732.688416 
	C769.577393,739.571472 769.577393,746.657776 769.577393,754.035767 
	C770.777405,754.035767 772.266907,754.101746 772.274048,754.026367 
	C772.975525,746.668457 773.564575,739.299805 774.085510,732.860718 
	C776.370178,731.522827 778.077332,730.523132 779.784546,729.523376 
	C779.506409,729.133728 779.228333,728.744141 778.950195,728.354492 
	C777.220154,728.001221 775.490173,727.647888 773.589844,726.427307 
M516.358765,727.982056 
	C509.114227,727.606995 515.349487,721.671448 512.009338,719.146729 
	C511.583923,719.146729 510.367126,719.146729 508.853821,719.146729 
	C508.853821,722.225708 508.853821,725.009949 508.853821,727.744629 
	C506.979065,727.967896 505.412018,728.154480 503.845001,728.341064 
	C503.672882,728.886963 503.500793,729.432800 503.328674,729.978638 
	C505.139740,730.778320 506.950836,731.577942 509.003632,732.484314 
	C509.003632,738.607300 509.080597,744.900635 508.972687,751.190735 
	C508.914734,754.566650 510.449829,754.570740 513.085205,753.490601 
	C513.085205,746.258362 513.085205,739.156311 513.085205,731.849121 
	C514.616028,731.719849 515.958313,731.796997 517.167480,731.432373 
	C517.882690,731.216675 518.387512,730.302917 518.986877,729.703003 
	C518.403625,729.131897 517.820374,728.560791 516.358765,727.982056 
M140.218811,753.150452 
	C140.298569,749.338684 140.088623,745.492859 140.532059,741.723877 
	C141.075958,737.101135 142.797424,733.136841 148.045212,731.751465 
	C149.068634,731.481323 149.701065,729.729980 150.513824,728.661804 
	C150.064011,728.225281 149.614197,727.788757 149.164368,727.352173 
	C146.431152,728.612061 143.697922,729.871948 141.610153,730.834290 
	C140.084213,729.608826 138.759598,728.544983 137.434982,727.481201 
	C136.241928,736.133423 136.283203,743.900635 136.221100,751.667114 
	C136.197128,754.663147 137.934006,754.315063 140.218811,753.150452 
M377.984192,736.561523 
	C377.984192,742.343079 377.984192,748.124573 377.984192,753.906128 
	C378.539917,754.141602 379.095642,754.377136 379.651367,754.612671 
	C380.429138,753.413086 381.719604,752.277588 381.879456,751.000671 
	C382.227997,748.215820 381.845154,745.348022 382.043457,742.533936 
	C382.404877,737.405273 384.172119,733.250122 389.785553,731.693542 
	C390.798828,731.412537 391.451630,729.831543 392.270844,728.850708 
	C391.835449,728.323425 391.400085,727.796143 390.964691,727.268860 
	C388.043152,728.742432 385.121582,730.216003 382.106140,731.736938 
	C381.852997,729.979187 382.505310,726.298645 377.984192,728.686646 
	C377.984192,730.954834 377.984192,733.271545 377.984192,736.561523 
M260.123322,747.381409 
	C260.129456,753.857788 260.129456,753.857788 263.974365,753.525146 
	C263.974365,741.812500 263.974365,730.085144 263.974365,717.985535 
	C262.640564,718.054871 261.436401,718.117493 260.122955,718.185852 
	C260.122955,727.834351 260.122955,737.119263 260.123322,747.381409 
M718.172668,748.109131 
	C718.172668,741.526062 718.172668,734.942993 718.172668,728.359863 
	C717.711792,728.075867 717.250916,727.791870 716.790039,727.507874 
	C715.909607,728.606384 714.307190,729.679321 714.267273,730.807617 
	C714.027771,737.576660 714.240784,744.360291 714.107178,751.135193 
	C714.041138,754.485657 715.550293,754.523254 718.172424,753.585205 
	C718.172424,751.945129 718.172424,750.468140 718.172668,748.109131 
M532.606750,732.803162 
	C532.606750,731.336121 532.606750,729.869080 532.606750,728.401978 
	C532.203552,728.076111 531.800293,727.750305 531.397095,727.424438 
	C530.429810,728.362488 528.651245,729.277100 528.623352,730.242310 
	C528.395813,738.117615 528.495239,746.002319 528.495239,753.884216 
	C529.057495,754.139954 529.619751,754.395691 530.182007,754.651428 
	C530.989502,753.466064 532.442505,752.308289 532.494568,751.090637 
	C532.741333,745.316162 532.605957,739.525330 532.606750,732.803162 
M789.023621,735.591187 
	C789.024353,740.745056 789.133118,745.901978 788.986633,751.051697 
	C788.894043,754.305969 790.344177,754.495300 792.725464,753.753845 
	C792.725464,744.992859 792.725464,736.577026 792.725464,728.146118 
	C789.026123,728.439026 789.026123,728.439026 789.023621,735.591187 
M675.959106,738.526489 
	C675.959106,743.638123 675.959106,748.749695 675.959106,753.861328 
	C676.501038,754.104248 677.043030,754.347229 677.584961,754.590149 
	C678.372925,753.401367 679.801331,752.234131 679.842346,751.020142 
	C680.066223,744.381470 679.854065,737.729309 679.991028,731.085876 
	C680.056519,727.909363 678.691345,727.579407 675.959106,728.391541 
	C675.959106,731.594116 675.959106,734.568542 675.959106,738.526489 
M629.004761,738.525635 
	C629.004761,735.078003 629.004761,731.630310 629.004761,728.182678 
	C628.444946,727.949158 627.885132,727.715698 627.325317,727.482178 
	C626.555298,728.683472 625.159851,729.864075 625.119385,731.089355 
	C624.900269,737.733398 625.079407,744.389221 624.987976,751.039246 
	C624.945801,754.109741 626.038086,754.930664 629.004761,753.330139 
	C629.004761,748.796021 629.004761,744.156738 629.004761,738.525635 
M276.733765,753.847717 
	C277.862061,753.219482 279.953125,752.618835 279.972015,751.958801 
	C280.198853,744.035339 280.118652,736.102966 280.118652,728.172974 
	C279.556030,727.941528 278.993439,727.710144 278.430817,727.478699 
	C277.658813,728.700623 276.249969,729.906921 276.219543,731.147095 
	C276.040131,738.451111 276.181732,745.763062 276.733765,753.847717 
z"/>
<path fill="#FCE798" opacity="1.000000" stroke="none" 
	d="
M658.253052,372.336182 
	C648.621643,406.794128 626.862732,428.403137 592.490479,437.068665 
	C586.351868,438.616272 581.491638,435.986450 580.192505,430.915314 
	C578.796082,425.464478 581.648438,420.461456 587.817078,418.949707 
	C600.048645,415.952087 610.769531,410.515350 620.094788,401.911530 
	C639.677612,383.843689 647.262390,354.641022 638.452454,329.604980 
	C628.159241,300.353516 603.858032,283.037689 572.315918,282.525482 
	C566.984558,282.438904 561.650024,282.566772 556.318237,282.495575 
	C548.716736,282.394073 546.132568,280.613586 544.160583,273.258636 
	C539.723694,256.710114 531.603088,242.182297 520.780151,229.019348 
	C492.658203,194.817215 443.211182,179.834579 400.983612,193.065079 
	C359.488403,206.066116 332.537231,234.083435 321.781433,275.714722 
	C311.102844,317.047058 321.469360,354.316162 351.155151,385.318115 
	C358.652283,393.147644 368.065918,399.199829 376.884216,405.680420 
	C380.861023,408.602997 382.913025,411.920441 381.754944,416.662567 
	C380.247681,422.834503 373.333649,425.265625 367.188568,421.838593 
	C351.098083,412.865112 337.709656,400.715912 326.679626,386.076385 
	C307.795105,361.012024 298.065582,332.680115 299.330994,301.264679 
	C301.346375,251.228928 323.785645,212.428284 367.091522,187.227997 
	C403.777557,165.879898 443.168671,163.283203 482.533020,178.885010 
	C519.291382,193.453934 544.909668,220.164886 558.741882,257.493042 
	C560.489868,262.210236 562.515808,263.821289 567.540833,263.600311 
	C594.640747,262.408630 618.150330,271.129211 636.727478,291.066406 
	C658.132446,314.038422 665.086853,341.255615 658.253052,372.336182 
z"/>
<path fill="#FCE798" opacity="1.000000" stroke="none" 
	d="
M466.981750,396.050720 
	C461.678528,404.063599 456.568451,411.771698 450.807861,420.460999 
	C461.764587,420.460999 471.518311,420.458405 481.272034,420.461609 
	C495.911530,420.466431 510.557007,420.222198 525.188416,420.569489 
	C535.314514,420.809814 539.096008,428.213654 533.603027,436.546356 
	C513.528625,466.998962 493.368103,497.394867 473.185883,527.776184 
	C469.497437,533.328674 463.543701,534.942200 459.153290,531.860168 
	C454.548401,528.627563 453.784882,522.949951 457.565735,517.216187 
	C473.701111,492.746704 489.934906,468.342102 506.122437,443.907013 
	C507.005493,442.574066 507.794678,441.178955 509.017944,439.172577 
	C505.408020,439.172577 502.471832,439.172577 499.535614,439.172546 
	C478.202881,439.172485 456.869965,439.131226 435.537506,439.206116 
	C431.114685,439.221619 427.220703,438.516357 424.948730,434.208191 
	C422.784424,430.104248 424.227570,426.611969 426.583557,423.058350 
	C446.734650,392.663727 466.789124,362.205109 486.931458,331.804657 
	C490.546478,326.348541 495.872650,324.987610 500.614685,327.986328 
	C505.288269,330.941772 506.168762,336.479218 502.829132,342.053497 
	C502.230743,343.052307 501.546326,343.999542 500.901428,344.970428 
	C489.659302,361.895630 478.417114,378.820770 466.981750,396.050720 
z"/>
<path fill="#A9D5F0" opacity="1.000000" stroke="none" 
	d="
M710.196228,586.099731 
	C713.800842,584.860413 717.063599,583.000183 720.379089,582.901062 
	C732.354858,582.543091 744.383667,582.200134 756.326721,582.928650 
	C772.713257,583.928162 783.535095,594.781799 784.464966,611.058960 
	C785.138245,622.844116 785.157898,634.732300 784.457581,646.514404 
	C783.484558,662.884399 772.229797,674.019409 755.765686,674.766602 
	C741.315430,675.422363 726.811829,674.903564 712.065796,674.903564 
	C712.065796,669.304016 712.065796,663.888245 712.065796,658.152710 
	C724.622314,658.152710 736.935303,658.156555 749.248291,658.151733 
	C764.052124,658.145935 768.945251,652.762634 767.630310,637.176636 
	C765.927368,637.176636 764.159302,637.176636 762.391235,637.176636 
	C749.396790,637.176392 736.402100,637.231689 723.408020,637.160889 
	C709.676880,637.086060 700.384583,627.755920 699.851990,613.980042 
	C699.440247,603.328308 700.135925,593.203918 710.196228,586.099731 
M717.302185,616.646118 
	C719.183472,617.709351 721.006592,619.547363 722.956787,619.694031 
	C729.409180,620.179077 735.907043,620.107666 742.388123,620.149780 
	C750.799683,620.204407 759.211853,620.163086 767.546814,620.163086 
	C769.149231,604.852051 764.081848,599.173767 749.436279,599.166748 
	C743.446533,599.163940 737.456787,599.166199 731.467041,599.166260 
	C716.755859,599.166321 715.315979,600.825989 717.302185,616.646118 
z"/>
<path fill="#A9D5F0" opacity="1.000000" stroke="none" 
	d="
M595.012390,663.759644 
	C595.012085,639.989624 595.002380,616.689819 595.017456,593.390076 
	C595.022766,585.199463 597.518188,582.506226 605.649658,582.520508 
	C621.453796,582.548340 637.277283,582.338135 653.056396,583.041687 
	C671.776245,583.876282 685.939819,598.150269 687.028320,617.074585 
	C687.560242,626.322083 688.087280,635.886414 686.375854,644.880920 
	C682.750854,663.933105 667.892944,674.792603 647.324585,674.982422 
	C633.512390,675.109863 619.697876,675.028198 605.884521,674.998962 
	C597.901306,674.982056 595.224792,672.292053 595.012390,663.759644 
M636.499878,658.157043 
	C641.158325,658.134460 645.819641,658.209839 650.474548,658.069397 
	C660.771240,657.758667 668.849182,651.236511 670.083801,641.011536 
	C671.014160,633.306396 671.075745,625.365967 670.393250,617.630127 
	C669.576660,608.374634 663.252380,600.782532 655.034607,600.312378 
	C640.846069,599.500732 626.577454,600.087463 612.248779,600.087463 
	C612.248779,619.136841 612.248779,638.503174 612.248779,658.157043 
	C620.225952,658.157043 627.862976,658.157043 636.499878,658.157043 
z"/>
<path fill="#A9D6F0" opacity="1.000000" stroke="none" 
	d="
M468.249878,620.487976 
	C468.181885,627.611145 468.269684,634.281189 467.994598,640.936340 
	C467.166351,660.975769 450.500092,676.318115 431.086517,676.057068 
	C423.755768,675.958496 416.397858,675.656921 409.095062,676.120789 
	C386.261078,677.571045 368.927307,660.769775 368.541077,640.000977 
	C368.358978,630.207947 367.761566,620.169678 369.534729,610.649048 
	C372.652710,593.907837 385.420380,582.914490 402.603424,581.645142 
	C414.175018,580.790344 426.012085,580.668884 437.490967,582.117126 
	C453.081177,584.083862 468.271210,597.480530 468.249878,620.487976 
M436.540405,658.612671 
	C445.777893,655.537476 450.826874,649.053528 451.227844,639.421082 
	C451.552032,631.633911 451.586090,623.784851 450.987122,616.021973 
	C450.280029,606.856873 444.112823,599.761108 434.970001,598.929260 
	C424.271362,597.955872 413.364319,597.805176 402.666809,598.708618 
	C392.369598,599.578308 386.008636,606.987671 385.273132,617.420654 
	C384.748352,624.865173 384.764435,632.400146 385.238739,639.850281 
	C385.929901,650.705750 392.790924,658.123718 403.389374,658.758362 
	C414.130432,659.401428 424.941071,658.881470 436.540405,658.612671 
z"/>
<path fill="#A8D5F0" opacity="1.000000" stroke="none" 
	d="
M558.917480,592.054321 
	C558.917603,588.746948 558.917603,585.929626 558.917603,582.795715 
	C564.483765,582.795715 569.732300,582.795715 575.469666,582.795715 
	C575.570007,584.463745 575.747681,586.050781 575.748901,587.637939 
	C575.767761,612.784851 575.773315,637.931824 575.760559,663.078735 
	C575.755798,672.387146 573.149231,675.107544 563.938721,674.981445 
	C549.801331,674.787964 535.595032,675.199951 521.547485,673.926392 
	C501.623688,672.120056 485.886353,657.552979 484.143921,637.726562 
	C482.552765,619.621033 483.806610,601.265564 483.806610,582.746826 
	C488.724243,582.746826 493.987762,582.746826 499.653259,582.746826 
	C499.748932,584.483032 499.910461,586.077637 499.913055,587.672485 
	C499.934296,600.662292 499.888000,613.652222 499.935028,626.641846 
	C500.009491,647.227661 510.875061,658.097656 531.376343,658.147217 
	C540.346191,658.168945 549.316162,658.150818 558.917297,658.150818 
	C558.917297,636.051453 558.917297,614.297913 558.917480,592.054321 
z"/>
<path fill="#A8D5F0" opacity="1.000000" stroke="none" 
	d="
M259.221954,584.749451 
	C259.236664,589.658081 259.236664,594.129089 259.236664,599.179565 
	C257.135345,599.179565 255.358276,599.179504 253.581223,599.179504 
	C236.255936,599.179626 218.930603,599.153870 201.605408,599.191528 
	C193.665970,599.208801 192.005203,600.933167 191.995697,608.945984 
	C191.979874,622.273132 191.972549,635.600342 191.998627,648.927429 
	C192.013535,656.540283 193.758621,658.145142 201.508209,658.132874 
	C220.486572,658.102844 239.464996,658.123047 258.842865,658.123047 
	C258.842865,663.754333 258.842865,669.137756 258.842865,674.812195 
	C257.436462,674.876282 255.982666,674.999207 254.528778,675.000244 
	C236.203964,675.013367 217.879105,675.028076 199.554337,675.002747 
	C185.084595,674.982727 175.553848,666.010315 175.286652,651.604126 
	C175.005585,636.449768 175.048370,621.283997 175.255035,606.127441 
	C175.445374,592.168518 184.327545,582.915710 198.368271,582.628723 
	C217.517960,582.237122 236.681168,582.467163 255.837967,582.557800 
	C256.963806,582.563110 258.084259,583.700928 259.221954,584.749451 
z"/>
<path fill="#A9D5F0" opacity="1.000000" stroke="none" 
	d="
M275.105286,586.350220 
	C276.067810,584.756042 276.956543,582.731567 278.004608,582.645386 
	C282.448395,582.280212 286.939453,582.490479 291.894165,582.490479 
	C291.894165,607.787598 291.894165,632.677551 291.894165,658.085876 
	C314.762573,658.085876 337.150238,658.085876 359.840546,658.085876 
	C359.840546,663.851929 359.840546,669.101562 359.840546,675.006653 
	C358.281586,675.006653 356.681854,675.006592 355.082123,675.006592 
	C332.257385,675.006592 309.432678,675.014526 286.607941,675.002625 
	C277.756287,674.997986 275.110962,672.302185 275.107269,663.282898 
	C275.096893,637.792480 275.104401,612.302124 275.105286,586.350220 
z"/>
<path fill="#EBD991" opacity="1.000000" stroke="none" 
	d="
M461.437073,741.032227 
	C460.051239,753.614563 450.361816,758.340088 440.914093,751.821228 
	C439.277008,752.741333 437.762360,753.592590 435.383362,754.929688 
	C435.383362,742.458069 435.315857,731.350952 435.501251,720.247925 
	C435.517487,719.274536 437.192596,718.328857 438.097229,717.370300 
	C438.539795,717.669312 438.982361,717.968323 439.424927,718.267334 
	C439.424927,722.369629 439.424927,726.471985 439.424927,731.297607 
	C444.785431,727.703796 449.854065,726.424133 455.218445,729.440796 
	C459.575623,731.891052 461.267639,735.842590 461.437073,741.032227 
M441.802246,734.175903 
	C440.972076,736.316833 439.695374,738.397705 439.397827,740.610291 
	C438.592194,746.601501 443.233398,751.576233 448.663605,750.874756 
	C452.757294,750.345886 456.039886,748.605835 456.946442,744.207153 
	C457.793182,740.098511 457.430176,736.093262 453.777435,733.366577 
	C450.031311,730.570007 446.095154,730.610168 441.802246,734.175903 
z"/>
<path fill="#F6E296" opacity="1.000000" stroke="none" 
	d="
M122.442734,731.546143 
	C126.660179,737.507019 127.108795,744.100769 123.838722,749.034973 
	C120.564346,753.975525 115.809692,755.236145 110.330513,754.060547 
	C108.312119,753.627502 106.448586,752.472717 104.947739,751.832092 
	C103.580879,752.732117 102.221794,753.626953 100.128838,755.005005 
	C100.128838,741.872559 100.128838,730.114075 100.128838,718.118042 
	C101.323997,718.118042 102.412903,718.118042 103.983452,718.118042 
	C103.983452,722.383606 103.983452,726.584717 103.983452,731.481934 
	C110.488297,726.839844 116.412285,726.363220 122.442734,731.546143 
M118.796410,733.686646 
	C117.809875,733.105164 116.886406,732.340515 115.825417,731.975220 
	C112.023285,730.666138 108.608620,731.275146 106.015343,734.552368 
	C103.225319,738.078247 103.191353,743.860352 105.785126,747.596375 
	C108.258705,751.159302 111.557419,751.546326 115.436714,750.376892 
	C122.201683,748.337402 123.858589,741.691956 118.796410,733.686646 
z"/>
<path fill="#F1DD94" opacity="1.000000" stroke="none" 
	d="
M345.719086,752.881592 
	C335.237946,756.984924 326.550995,752.478943 325.692352,742.841125 
	C324.897858,733.922852 329.891510,727.955322 338.246155,727.838989 
	C346.816467,727.719666 351.521576,732.956726 351.154510,742.681030 
	C344.286133,742.681030 337.380829,742.681030 330.456543,742.681030 
	C330.756287,748.094055 333.418243,751.234741 338.517639,750.729797 
	C342.331177,750.352173 345.959259,748.101807 349.669891,746.685364 
	C349.941193,747.053772 350.212494,747.422180 350.483765,747.790527 
	C349.007141,749.429565 347.530487,751.068604 345.719086,752.881592 
M333.517090,732.896545 
	C332.182648,734.585022 330.848175,736.273438 328.887390,738.754395 
	C335.760834,738.754395 341.253876,738.754395 346.797913,738.754395 
	C345.304291,732.078186 341.286438,730.140991 333.517090,732.896545 
z"/>
<path fill="#EFDC93" opacity="1.000000" stroke="none" 
	d="
M754.789673,736.103638 
	C754.789612,742.208679 754.789612,747.829773 754.789612,754.523560 
	C752.793091,753.703430 751.394348,753.128845 749.149902,752.206848 
	C741.405518,755.910706 735.528015,755.336487 731.265503,749.757080 
	C727.567566,744.916931 727.906250,736.016968 731.952515,731.703186 
	C736.389099,726.973267 742.751221,726.608765 749.330078,730.533875 
	C750.819702,729.492188 752.243958,728.496216 754.789673,726.715942 
	C754.789673,730.727173 754.789673,733.173462 754.789673,736.103638 
M734.266296,746.908813 
	C738.043945,750.947937 743.116638,752.127502 746.661743,749.791016 
	C750.577026,747.210693 751.935120,741.177856 749.698730,736.300476 
	C747.859741,732.289734 743.771301,730.551208 739.276672,731.868835 
	C734.524597,733.261780 732.210693,737.446106 733.001404,743.377014 
	C733.129150,744.335754 733.597839,745.249146 734.266296,746.908813 
z"/>
<path fill="#F2DE94" opacity="1.000000" stroke="none" 
	d="
M858.151917,746.979187 
	C855.582520,754.565979 845.763611,757.135681 839.171692,752.127441 
	C834.064087,748.246765 832.374817,740.478699 835.340088,734.508301 
	C837.909180,729.335632 844.717529,726.560669 850.784485,728.213440 
	C857.039124,729.917419 860.238159,735.021057 859.624878,742.811340 
	C852.738953,742.811340 845.808167,742.811340 838.877380,742.811340 
	C838.545959,743.243225 838.214600,743.675049 837.883179,744.106934 
	C839.715149,746.111755 841.230103,749.194214 843.458923,749.849731 
	C846.271240,750.676880 849.705505,749.732788 852.793884,749.144897 
	C854.554810,748.809692 856.161072,747.662292 858.151917,746.979187 
M854.432678,738.965759 
	C854.700378,738.360535 855.331360,737.637146 855.179016,737.168457 
	C853.808167,732.951843 850.576721,731.074585 846.401245,731.384888 
	C842.060242,731.707336 839.111633,734.032410 838.448853,738.992310 
	C843.693665,738.992310 848.653992,738.992310 854.432678,738.965759 
z"/>
<path fill="#F1DD94" opacity="1.000000" stroke="none" 
	d="
M246.902634,731.854004 
	C244.543335,733.989868 242.439453,735.866089 240.014771,738.028381 
	C243.872269,743.480469 247.367035,748.419861 251.530457,754.304260 
	C242.408310,753.824951 242.474167,744.840820 237.351456,741.625122 
	C233.838196,743.711365 232.210159,746.742004 232.596420,751.074036 
	C232.694229,752.171082 231.133789,753.415894 230.335327,754.592773 
	C229.877075,754.337891 229.418808,754.082947 228.960556,753.828003 
	C228.960556,742.082336 228.960556,730.336609 228.960556,718.584106 
	C232.550049,717.926758 232.666962,717.925232 232.705872,720.884705 
	C232.786591,727.024170 232.730225,733.165405 232.730225,739.713623 
	C239.312836,736.812195 241.225494,727.709473 250.462463,727.869385 
	C248.998611,729.519531 248.078339,730.556946 246.902634,731.854004 
z"/>
<path fill="#F2DE94" opacity="1.000000" stroke="none" 
	d="
M173.249878,754.259521 
	C165.052292,754.748779 160.263809,752.228577 158.258713,746.631287 
	C156.144379,740.729065 157.899017,733.413147 162.377228,730.343384 
	C167.196182,727.040039 172.297058,726.821045 177.410492,729.697937 
	C182.880554,732.775452 183.762756,737.902405 183.149399,743.487244 
	C182.519913,749.218933 179.358414,752.890137 173.249878,754.259521 
M163.067245,747.060974 
	C166.645691,751.247864 171.374283,752.322327 175.215164,749.821350 
	C179.170242,747.246033 180.514908,740.706848 178.059906,735.987427 
	C175.914566,731.863281 171.494370,730.244751 167.084335,731.968506 
	C162.213745,733.872314 160.489685,739.526001 163.067245,747.060974 
z"/>
<path fill="#EEDB92" opacity="1.000000" stroke="none" 
	d="
M311.297577,750.377258 
	C311.277679,746.291565 311.257629,742.636475 311.238525,738.981384 
	C311.214630,734.410828 308.857269,731.626404 304.388824,731.427124 
	C300.025452,731.232544 296.982208,733.716370 296.474670,738.100220 
	C295.980713,742.366516 296.382324,746.730896 296.033722,751.023193 
	C295.932892,752.264771 294.601501,753.406372 293.834229,754.593750 
	C293.260406,754.351318 292.686584,754.108826 292.112762,753.866394 
	C292.112762,745.955078 292.074432,738.043335 292.178009,730.133362 
	C292.187347,729.420776 293.378845,728.046753 293.570099,728.122375 
	C294.894623,728.645508 296.099548,729.471436 297.480316,730.280701 
	C305.726959,724.181824 316.172424,728.983337 315.368408,740.748108 
	C315.076019,745.026794 315.321350,749.342285 315.321350,753.566040 
	C312.079407,754.861328 311.007202,753.720825 311.297577,750.377258 
z"/>
<path fill="#F1DD94" opacity="1.000000" stroke="none" 
	d="
M415.155029,754.214478 
	C406.126221,754.887451 401.544006,752.215027 399.618652,745.438354 
	C397.413879,737.678101 401.140198,730.189819 408.181793,728.230347 
	C415.151398,726.290833 422.260468,729.856628 424.317352,736.323792 
	C426.920441,744.508240 423.499664,751.463196 415.155029,754.214478 
M404.265167,736.131226 
	C403.901398,737.564697 403.425262,738.980347 403.194305,740.434875 
	C402.402832,745.418823 406.002747,750.455627 410.641083,750.964478 
	C415.581757,751.506409 419.023590,749.309631 420.530518,744.652283 
	C421.966492,740.214233 419.980347,734.372375 416.363922,732.397339 
	C412.293213,730.174194 408.202087,731.256409 404.265167,736.131226 
z"/>
<path fill="#F2DE94" opacity="1.000000" stroke="none" 
	d="
M496.150818,741.019897 
	C495.551086,749.584961 491.718964,753.897217 484.587433,754.429871 
	C477.350616,754.970276 472.367950,751.593262 470.747192,745.049377 
	C468.922424,737.681824 471.618774,731.450867 477.915314,728.836304 
	C486.194000,725.398804 496.596954,730.535828 496.150818,741.019897 
M484.274567,750.979065 
	C490.197937,749.566833 492.897186,745.466125 491.951721,739.315918 
	C491.176208,734.271240 487.524567,731.049561 482.853668,731.289062 
	C477.853912,731.545410 474.130096,735.962158 474.204773,741.547302 
	C474.278351,747.049316 477.661346,750.496765 484.274567,750.979065 
z"/>
<path fill="#F2DE94" opacity="1.000000" stroke="none" 
	d="
M205.804688,727.850464 
	C214.906754,729.119507 218.832108,734.141663 218.075363,743.081665 
	C217.462677,750.319824 212.042328,754.834900 204.395218,754.476868 
	C197.152618,754.137817 192.228302,748.889587 192.151688,741.427917 
	C192.067612,733.240173 196.767349,728.426636 205.804688,727.850464 
M213.768356,738.196289 
	C211.073898,732.071960 207.499344,730.100586 202.294159,731.867920 
	C197.890427,733.363220 195.391251,738.489868 196.559113,743.632446 
	C197.812042,749.149597 201.613998,751.794312 207.076248,750.948364 
	C211.847641,750.209412 214.304337,745.911987 213.768356,738.196289 
z"/>
<path fill="#F1DD94" opacity="1.000000" stroke="none" 
	d="
M584.661560,750.898132 
	C585.224792,751.014099 585.389893,751.048645 585.555176,751.049255 
	C588.823853,751.061157 593.199890,751.906555 593.858887,747.726868 
	C594.590881,743.083069 589.658813,743.656921 586.787354,742.585510 
	C584.622620,741.777771 582.236938,741.449341 580.214355,740.398132 
	C576.463074,738.448364 575.831360,733.836243 578.610840,730.630676 
	C583.279663,725.246155 594.641785,727.554504 597.355286,735.390503 
	C595.482117,734.656982 594.246826,734.039612 592.940063,733.688538 
	C589.945007,732.884033 586.940674,731.951355 583.882874,731.649231 
	C583.035034,731.565369 581.292542,733.467102 581.226624,734.535828 
	C581.161499,735.591492 582.475586,737.313965 583.576050,737.745361 
	C586.336182,738.827332 589.367859,739.192261 592.197876,740.126038 
	C595.923218,741.355225 598.813232,743.416199 598.142822,748.036194 
	C597.533325,752.236816 594.624512,753.730347 590.852295,754.225281 
	C582.626099,755.304382 578.331970,752.967957 577.462341,745.350952 
	C579.729431,747.167603 581.996460,748.984253 584.661560,750.898132 
z"/>
<path fill="#F3DF94" opacity="1.000000" stroke="none" 
	d="
M551.242981,732.793579 
	C546.828186,737.497375 545.916443,741.815186 548.162170,746.086853 
	C550.068420,749.712708 553.083801,751.627563 557.130432,750.833984 
	C559.089600,750.449768 560.844788,748.998535 562.676819,748.001892 
	C564.199402,747.173584 565.699341,746.303650 568.357239,744.804871 
	C564.827148,752.995605 559.911804,755.533691 552.530396,754.175110 
	C546.876465,753.134521 542.989807,747.932068 542.959290,741.364014 
	C542.927429,734.504883 546.685120,729.380493 552.693176,728.089905 
	C559.483948,726.631287 564.714050,729.216431 568.271973,736.752991 
	C565.979675,735.872864 564.033936,735.732544 563.191895,734.695801 
	C559.823303,730.548462 555.922668,730.690735 551.242981,732.793579 
z"/>
<path fill="#F6E296" opacity="1.000000" stroke="none" 
	d="
M641.025818,752.688293 
	C640.991028,744.240356 640.991028,736.268738 640.991028,727.114746 
	C643.101501,728.305298 644.425293,729.052063 646.587341,730.271729 
	C646.881165,730.096680 648.292847,728.973877 649.898315,728.348755 
	C656.355042,725.834473 663.278381,729.876526 663.867798,736.871094 
	C664.338623,742.458191 663.962769,748.116577 663.962769,753.743347 
	C663.504822,754.007996 663.046875,754.272644 662.588867,754.537292 
	C661.764038,753.387878 660.321716,752.286682 660.227417,751.080139 
	C659.916748,747.106812 660.190857,743.092102 660.059753,739.099243 
	C659.897949,734.173401 657.146301,731.304626 652.836548,731.313904 
	C648.701538,731.322754 645.345825,734.382385 645.108032,738.910095 
	C644.855774,743.713562 645.051392,748.540527 645.051392,754.245178 
	C643.431335,753.806519 642.245972,753.485596 641.025818,752.688293 
z"/>
<path fill="#F1DD94" opacity="1.000000" stroke="none" 
	d="
M802.499451,729.574951 
	C805.562744,727.320374 805.865479,727.350830 807.203613,730.731873 
	C809.573975,736.721130 811.824524,742.757751 814.479187,749.700500 
	C816.305969,744.861206 817.351135,740.653625 819.423828,737.034424 
	C821.243225,733.857544 819.745850,727.759094 827.008789,727.999023 
	C823.539185,736.940552 820.236694,745.451477 817.019287,753.743042 
	C813.324524,754.960632 811.671143,753.695129 810.521118,750.340088 
	C808.158813,743.448486 805.314514,736.722107 802.499451,729.574951 
z"/>
<path fill="#EBD991" opacity="1.000000" stroke="none" 
	d="
M689.454468,728.950256 
	C691.136475,728.222046 692.733704,727.911133 694.716370,727.525208 
	C694.716370,724.874207 694.716370,722.123962 694.716370,719.415588 
	C698.360779,719.055054 698.360779,719.055054 699.211731,727.757812 
	C700.899536,727.880371 702.654358,728.007812 704.409119,728.135254 
	C704.656433,728.623535 704.903748,729.111755 705.151001,729.600037 
	C703.396240,730.561890 701.641479,731.523804 699.188538,732.868347 
	C698.893250,739.223145 698.565674,746.553223 698.091858,753.873779 
	C698.084534,753.986816 696.273438,753.983154 694.954895,754.052246 
	C694.954895,746.754883 694.954895,739.656372 694.954895,733.317200 
	C692.705688,731.726562 691.037720,730.547058 689.454468,728.950256 
z"/>
<path fill="#EEDB92" opacity="1.000000" stroke="none" 
	d="
M773.674988,726.860962 
	C775.490173,727.647888 777.220154,728.001221 778.950195,728.354492 
	C779.228333,728.744141 779.506409,729.133728 779.784546,729.523376 
	C778.077332,730.523132 776.370178,731.522827 774.085510,732.860718 
	C773.564575,739.299805 772.975525,746.668457 772.274048,754.026367 
	C772.266907,754.101746 770.777405,754.035767 769.577393,754.035767 
	C769.577393,746.657776 769.577393,739.571472 769.577393,732.688416 
	C767.327759,731.680603 765.486633,730.855835 763.645508,730.031006 
	C763.816772,729.496582 763.988037,728.962097 764.159363,728.427612 
	C765.706909,728.177795 767.254517,727.927979 769.291992,727.599060 
	C769.291992,724.976318 769.291992,722.241089 769.291992,719.505920 
	C769.752441,719.161255 770.212830,718.816589 770.673279,718.471985 
	C771.628174,719.463379 773.040771,720.306091 773.423279,721.483337 
	C773.912842,722.990356 773.572571,724.766907 773.674988,726.860962 
z"/>
<path fill="#F6E296" opacity="1.000000" stroke="none" 
	d="
M516.797974,727.985840 
	C517.820374,728.560791 518.403625,729.131897 518.986877,729.703003 
	C518.387512,730.302917 517.882690,731.216675 517.167480,731.432373 
	C515.958313,731.796997 514.616028,731.719849 513.085205,731.849121 
	C513.085205,739.156311 513.085205,746.258362 513.085205,753.490601 
	C510.449829,754.570740 508.914734,754.566650 508.972687,751.190735 
	C509.080597,744.900635 509.003632,738.607300 509.003632,732.484314 
	C506.950836,731.577942 505.139740,730.778320 503.328674,729.978638 
	C503.500793,729.432800 503.672882,728.886963 503.845001,728.341064 
	C505.412018,728.154480 506.979065,727.967896 508.853821,727.744629 
	C508.853821,725.009949 508.853821,722.225708 508.853821,719.146729 
	C510.367126,719.146729 511.583923,719.146729 512.009338,719.146729 
	C515.349487,721.671448 509.114227,727.606995 516.797974,727.985840 
z"/>
<path fill="#E8D790" opacity="1.000000" stroke="none" 
	d="
M140.039978,753.489380 
	C137.934006,754.315063 136.197128,754.663147 136.221100,751.667114 
	C136.283203,743.900635 136.241928,736.133423 137.434982,727.481201 
	C138.759598,728.544983 140.084213,729.608826 141.610153,730.834290 
	C143.697922,729.871948 146.431152,728.612061 149.164368,727.352173 
	C149.614197,727.788757 150.064011,728.225281 150.513824,728.661804 
	C149.701065,729.729980 149.068634,731.481323 148.045212,731.751465 
	C142.797424,733.136841 141.075958,737.101135 140.532059,741.723877 
	C140.088623,745.492859 140.298569,749.338684 140.039978,753.489380 
z"/>
<path fill="#F7E396" opacity="1.000000" stroke="none" 
	d="
M377.984192,736.074890 
	C377.984192,733.271545 377.984192,730.954834 377.984192,728.686646 
	C382.505310,726.298645 381.852997,729.979187 382.106140,731.736938 
	C385.121582,730.216003 388.043152,728.742432 390.964691,727.268860 
	C391.400085,727.796143 391.835449,728.323425 392.270844,728.850708 
	C391.451630,729.831543 390.798828,731.412537 389.785553,731.693542 
	C384.172119,733.250122 382.404877,737.405273 382.043457,742.533936 
	C381.845154,745.348022 382.227997,748.215820 381.879456,751.000671 
	C381.719604,752.277588 380.429138,753.413086 379.651367,754.612671 
	C379.095642,754.377136 378.539917,754.141602 377.984192,753.906128 
	C377.984192,748.124573 377.984192,742.343079 377.984192,736.074890 
z"/>
<path fill="#F1DD94" opacity="1.000000" stroke="none" 
	d="
M260.123138,746.892822 
	C260.122955,737.119263 260.122955,727.834351 260.122955,718.185852 
	C261.436401,718.117493 262.640564,718.054871 263.974365,717.985535 
	C263.974365,730.085144 263.974365,741.812500 263.974365,753.525146 
	C260.129456,753.857788 260.129456,753.857788 260.123138,746.892822 
z"/>
<path fill="#EFDC93" opacity="1.000000" stroke="none" 
	d="
M718.172546,748.550110 
	C718.172424,750.468140 718.172424,751.945129 718.172424,753.585205 
	C715.550293,754.523254 714.041138,754.485657 714.107178,751.135193 
	C714.240784,744.360291 714.027771,737.576660 714.267273,730.807617 
	C714.307190,729.679321 715.909607,728.606384 716.790039,727.507874 
	C717.250916,727.791870 717.711792,728.075867 718.172668,728.359863 
	C718.172668,734.942993 718.172668,741.526062 718.172546,748.550110 
z"/>
<path fill="#E1D08D" opacity="1.000000" stroke="none" 
	d="
M532.606750,733.271729 
	C532.605957,739.525330 532.741333,745.316162 532.494568,751.090637 
	C532.442505,752.308289 530.989502,753.466064 530.182007,754.651428 
	C529.619751,754.395691 529.057495,754.139954 528.495239,753.884216 
	C528.495239,746.002319 528.395813,738.117615 528.623352,730.242310 
	C528.651245,729.277100 530.429810,728.362488 531.397095,727.424438 
	C531.800293,727.750305 532.203552,728.076111 532.606750,728.401978 
	C532.606750,729.869080 532.606750,731.336121 532.606750,733.271729 
z"/>
<path fill="#FCE798" opacity="1.000000" stroke="none" 
	d="
M789.023743,735.104736 
	C789.026123,728.439026 789.026123,728.439026 792.725464,728.146118 
	C792.725464,736.577026 792.725464,744.992859 792.725464,753.753845 
	C790.344177,754.495300 788.894043,754.305969 788.986633,751.051697 
	C789.133118,745.901978 789.024353,740.745056 789.023743,735.104736 
z"/>
<path fill="#F7E396" opacity="1.000000" stroke="none" 
	d="
M675.959106,738.034790 
	C675.959106,734.568542 675.959106,731.594116 675.959106,728.391541 
	C678.691345,727.579407 680.056519,727.909363 679.991028,731.085876 
	C679.854065,737.729309 680.066223,744.381470 679.842346,751.020142 
	C679.801331,752.234131 678.372925,753.401367 677.584961,754.590149 
	C677.043030,754.347229 676.501038,754.104248 675.959106,753.861328 
	C675.959106,748.749695 675.959106,743.638123 675.959106,738.034790 
z"/>
<path fill="#FCE798" opacity="1.000000" stroke="none" 
	d="
M629.004761,739.021545 
	C629.004761,744.156738 629.004761,748.796021 629.004761,753.330139 
	C626.038086,754.930664 624.945801,754.109741 624.987976,751.039246 
	C625.079407,744.389221 624.900269,737.733398 625.119385,731.089355 
	C625.159851,729.864075 626.555298,728.683472 627.325317,727.482178 
	C627.885132,727.715698 628.444946,727.949158 629.004761,728.182678 
	C629.004761,731.630310 629.004761,735.078003 629.004761,739.021545 
z"/>
<path fill="#F2DE94" opacity="1.000000" stroke="none" 
	d="
M276.474487,753.460022 
	C276.181732,745.763062 276.040131,738.451111 276.219543,731.147095 
	C276.249969,729.906921 277.658813,728.700623 278.430817,727.478699 
	C278.993439,727.710144 279.556030,727.941528 280.118652,728.172974 
	C280.118652,736.102966 280.198853,744.035339 279.972015,751.958801 
	C279.953125,752.618835 277.862061,753.219482 276.474487,753.460022 
z"/>
<path fill="#182D42" opacity="1.000000" stroke="none" 
	d="
M717.165161,616.227234 
	C715.315979,600.825989 716.755859,599.166321 731.467041,599.166260 
	C737.456787,599.166199 743.446533,599.163940 749.436279,599.166748 
	C764.081848,599.173767 769.149231,604.852051 767.546814,620.163086 
	C759.211853,620.163086 750.799683,620.204407 742.388123,620.149780 
	C735.907043,620.107666 729.409180,620.179077 722.956787,619.694031 
	C721.006592,619.547363 719.183472,617.709351 717.165161,616.227234 
z"/>
<path fill="#162B40" opacity="1.000000" stroke="none" 
	d="
M635.999939,658.157043 
	C627.862976,658.157043 620.225952,658.157043 612.248779,658.157043 
	C612.248779,638.503174 612.248779,619.136841 612.248779,600.087463 
	C626.577454,600.087463 640.846069,599.500732 655.034607,600.312378 
	C663.252380,600.782532 669.576660,608.374634 670.393250,617.630127 
	C671.075745,625.365967 671.014160,633.306396 670.083801,641.011536 
	C668.849182,651.236511 660.771240,657.758667 650.474548,658.069397 
	C645.819641,658.209839 641.158325,658.134460 635.999939,658.157043 
z"/>
<path fill="#162B40" opacity="1.000000" stroke="none" 
	d="
M436.130829,658.741821 
	C424.941071,658.881470 414.130432,659.401428 403.389374,658.758362 
	C392.790924,658.123718 385.929901,650.705750 385.238739,639.850281 
	C384.764435,632.400146 384.748352,624.865173 385.273132,617.420654 
	C386.008636,606.987671 392.369598,599.578308 402.666809,598.708618 
	C413.364319,597.805176 424.271362,597.955872 434.970001,598.929260 
	C444.112823,599.761108 450.280029,606.856873 450.987122,616.021973 
	C451.586090,623.784851 451.552032,631.633911 451.227844,639.421082 
	C450.826874,649.053528 445.777893,655.537476 436.130829,658.741821 
z"/>
<path fill="#1B2F41" opacity="1.000000" stroke="none" 
	d="
M442.066864,733.874023 
	C446.095154,730.610168 450.031311,730.570007 453.777435,733.366577 
	C457.430176,736.093262 457.793182,740.098511 456.946442,744.207153 
	C456.039886,748.605835 452.757294,750.345886 448.663605,750.874756 
	C443.233398,751.576233 438.592194,746.601501 439.397827,740.610291 
	C439.695374,738.397705 440.972076,736.316833 442.066864,733.874023 
z"/>
<path fill="#1B2F41" opacity="1.000000" stroke="none" 
	d="
M119.096039,733.928406 
	C123.858589,741.691956 122.201683,748.337402 115.436714,750.376892 
	C111.557419,751.546326 108.258705,751.159302 105.785126,747.596375 
	C103.191353,743.860352 103.225319,738.078247 106.015343,734.552368 
	C108.608620,731.275146 112.023285,730.666138 115.825417,731.975220 
	C116.886406,732.340515 117.809875,733.105164 119.096039,733.928406 
z"/>
<path fill="#1B2F41" opacity="1.000000" stroke="none" 
	d="
M333.823822,732.669800 
	C341.286438,730.140991 345.304291,732.078186 346.797913,738.754395 
	C341.253876,738.754395 335.760834,738.754395 328.887390,738.754395 
	C330.848175,736.273438 332.182648,734.585022 333.823822,732.669800 
z"/>
<path fill="#1B2F41" opacity="1.000000" stroke="none" 
	d="
M734.087646,746.546143 
	C733.597839,745.249146 733.129150,744.335754 733.001404,743.377014 
	C732.210693,737.446106 734.524597,733.261780 739.276672,731.868835 
	C743.771301,730.551208 747.859741,732.289734 749.698730,736.300476 
	C751.935120,741.177856 750.577026,747.210693 746.661743,749.791016 
	C743.116638,752.127502 738.043945,750.947937 734.087646,746.546143 
z"/>
<path fill="#203344" opacity="1.000000" stroke="none" 
	d="
M854.023438,738.979004 
	C848.653992,738.992310 843.693665,738.992310 838.448853,738.992310 
	C839.111633,734.032410 842.060242,731.707336 846.401245,731.384888 
	C850.576721,731.074585 853.808167,732.951843 855.179016,737.168457 
	C855.331360,737.637146 854.700378,738.360535 854.023438,738.979004 
z"/>
<path fill="#1B2F41" opacity="1.000000" stroke="none" 
	d="
M162.888306,746.688232 
	C160.489685,739.526001 162.213745,733.872314 167.084335,731.968506 
	C171.494370,730.244751 175.914566,731.863281 178.059906,735.987427 
	C180.514908,740.706848 179.170242,747.246033 175.215164,749.821350 
	C171.374283,752.322327 166.645691,751.247864 162.888306,746.688232 
z"/>
<path fill="#1B2F41" opacity="1.000000" stroke="none" 
	d="
M404.484863,735.806335 
	C408.202087,731.256409 412.293213,730.174194 416.363922,732.397339 
	C419.980347,734.372375 421.966492,740.214233 420.530518,744.652283 
	C419.023590,749.309631 415.581757,751.506409 410.641083,750.964478 
	C406.002747,750.455627 402.402832,745.418823 403.194305,740.434875 
	C403.425262,738.980347 403.901398,737.564697 404.484863,735.806335 
z"/>
<path fill="#1B2F41" opacity="1.000000" stroke="none" 
	d="
M483.869263,750.980957 
	C477.661346,750.496765 474.278351,747.049316 474.204773,741.547302 
	C474.130096,735.962158 477.853912,731.545410 482.853668,731.289062 
	C487.524567,731.049561 491.176208,734.271240 491.951721,739.315918 
	C492.897186,745.466125 490.197937,749.566833 483.869263,750.980957 
z"/>
<path fill="#1B2F41" opacity="1.000000" stroke="none" 
	d="
M213.837097,738.598938 
	C214.304337,745.911987 211.847641,750.209412 207.076248,750.948364 
	C201.613998,751.794312 197.812042,749.149597 196.559113,743.632446 
	C195.391251,738.489868 197.890427,733.363220 202.294159,731.867920 
	C207.499344,730.100586 211.073898,732.071960 213.837097,738.598938 
z"/>
</svg>